<?xml version="1.0" encoding="UTF-8" standalone="no"?>
<!DOCTYPE svg PUBLIC "-//W3C//DTD SVG 1.1//EN" "http://www.w3.org/Graphics/SVG/1.1/DTD/svg11.dtd">
<svg version="1.1" xmlns="http://www.w3.org/2000/svg" xmlns:xlink="http://www.w3.org/1999/xlink" preserveAspectRatio="xMidYMid meet" viewBox="0 0 640 640" width="640" height="640"><defs><path d="M80 240C80 107.45 187.45 0 320 0C452.55 0 560 107.45 560 240C560 336.77 526.29 363.79 344.67 627.09C332.75 644.3 307.25 644.3 295.34 627.09C113.71 363.79 80 336.77 80 240Z" id="b6CBxeI68f"></path><path d="M528.84 237.17C528.84 349.66 434.89 440.85 319 440.85C203.11 440.85 109.16 349.66 109.16 237.17C109.16 124.68 203.11 33.49 319 33.49C434.89 33.49 528.84 124.68 528.84 237.17Z" id="c3DMWoBHDm"></path><path d="M245.12 75.04C245.12 75.04 255.43 83.98 257.2 118.73C259.62 167.01 258.74 163.03 253.42 408.45C257.45 409.89 277.55 417.11 313.74 430.09C313.77 262 313.79 168.61 313.8 149.94C313.8 149.94 318.75 131.51 294.07 111.8C269.42 92.03 254.91 82.39 245.12 75.04Z" id="a1vWvAYaBe"></path><path d="M330.93 274.34L456.6 341.55L456.88 278.21L331.24 212.22L330.93 274.34Z" id="az7PxhVKy"></path><path d="M160.18 126.61C160.29 128.2 160.78 129.82 161.6 131.37C161.31 130.42 160.32 127.09 160.18 126.61Z" id="b2bi8uKoN1"></path><path d="M241.06 183.59C208.14 163.76 189.85 152.74 186.2 150.54C186.2 150.54 167.06 141.69 161.6 131.37C163.41 137.38 177.88 185.45 179.69 191.45C179.69 191.45 183.4 207.99 201.19 217.08C218.94 226.21 244.96 244.75 244.96 244.75C244.96 244.75 243.66 224.37 241.06 183.59Z" id="b83EjuksA"></path><path d="M234.6 68.56C234.6 68.56 187.94 64.97 160.26 112.42C160.26 112.42 152.3 128.72 188.46 145.53C188.46 145.53 221.92 108.44 249.96 105.27C249.96 105.27 250.59 77.3 234.6 68.56Z" id="d1Uibkvbxe"></path><path d="M469.83 121.57C469.83 121.57 466.77 134.65 436.32 153C393.98 178.46 397.15 175.79 173.42 290.26C174.07 294.37 177.32 314.94 183.17 351.95C334.65 270.49 418.8 225.23 435.63 216.18C435.63 216.18 454.64 211.45 460.44 180.94C466.3 150.44 467.95 133.44 469.83 121.57Z" id="a1iFIV6bp"></path><path d="M331.84 291.04L332.2 430.31L389.42 399.84L387.97 261.18L331.84 291.04Z" id="b7e0wmNU7"></path><path d="M382.18 74.46C380.8 75.32 379.58 76.53 378.58 77.97C379.3 77.27 381.82 74.81 382.18 74.46Z" id="a142IfMUu9"></path><path d="M370.04 170.75C371.95 133.19 373.02 112.32 373.23 108.15C373.23 108.15 371.92 87.62 378.58 77.97C374.04 82.42 337.74 118.01 333.21 122.46C333.21 122.46 320.11 133.63 320.54 153.14C320.92 172.63 316.82 203.71 316.82 203.71C316.82 203.71 334.56 192.72 370.04 170.75Z" id="f14rfvtEy"></path><path d="M470.57 109.49C470.57 109.49 451.18 68.14 395 67.65C395 67.65 376.46 68.79 378.84 107.64C378.84 107.64 428.48 118.06 444.94 140.33C444.94 140.33 470.44 127.31 470.57 109.49Z" id="aTFOhEd5"></path><path d="M399.79 310.38C399.79 310.38 393.21 249.54 393.21 249.32C393.21 249.11 343 272.13 342.26 279.21C353.77 285.44 388.29 304.15 399.79 310.38Z" id="lAesOk1EQ"></path></defs><g><g><g><use xlink:href="#b6CBxeI68f" opacity="1" fill="#000000" fill-opacity="1"></use><g><use xlink:href="#b6CBxeI68f" opacity="1" fill-opacity="0" stroke="#000000" stroke-width="1" stroke-opacity="0"></use></g></g><g><use xlink:href="#c3DMWoBHDm" opacity="1" fill="#ffbf00" fill-opacity="1"></use><g><use xlink:href="#c3DMWoBHDm" opacity="1" fill-opacity="0" stroke="#000000" stroke-width="1.5" stroke-opacity="1"></use></g></g><g><use xlink:href="#a1vWvAYaBe" opacity="1" fill="#030104" fill-opacity="1"></use><g><use xlink:href="#a1vWvAYaBe" opacity="1" fill-opacity="0" stroke="#000000" stroke-width="1" stroke-opacity="1"></use></g></g><g><use xlink:href="#az7PxhVKy" opacity="1" fill="#030104" fill-opacity="1"></use><g><use xlink:href="#az7PxhVKy" opacity="1" fill-opacity="0" stroke="#000000" stroke-width="1" stroke-opacity="1"></use></g></g><g><use xlink:href="#b2bi8uKoN1" opacity="1" fill="#030104" fill-opacity="1"></use><g><use xlink:href="#b2bi8uKoN1" opacity="1" fill-opacity="0" stroke="#000000" stroke-width="1" stroke-opacity="1"></use></g></g><g><use xlink:href="#b83EjuksA" opacity="1" fill="#030104" fill-opacity="1"></use><g><use xlink:href="#b83EjuksA" opacity="1" fill-opacity="0" stroke="#000000" stroke-width="1" stroke-opacity="1"></use></g></g><g><use xlink:href="#d1Uibkvbxe" opacity="1" fill="#030104" fill-opacity="1"></use><g><use xlink:href="#d1Uibkvbxe" opacity="1" fill-opacity="0" stroke="#000000" stroke-width="1" stroke-opacity="1"></use></g></g><g><use xlink:href="#a1iFIV6bp" opacity="1" fill="#ff0000" fill-opacity="1"></use><g><use xlink:href="#a1iFIV6bp" opacity="1" fill-opacity="0" stroke="#000000" stroke-width="1" stroke-opacity="1"></use></g></g><g><use xlink:href="#b7e0wmNU7" opacity="1" fill="#ff0000" fill-opacity="1"></use><g><use xlink:href="#b7e0wmNU7" opacity="1" fill-opacity="0" stroke="#000000" stroke-width="1" stroke-opacity="1"></use></g></g><g><use xlink:href="#a142IfMUu9" opacity="1" fill="#ff0000" fill-opacity="1"></use><g><use xlink:href="#a142IfMUu9" opacity="1" fill-opacity="0" stroke="#000000" stroke-width="1" stroke-opacity="1"></use></g></g><g><use xlink:href="#f14rfvtEy" opacity="1" fill="#ff0000" fill-opacity="1"></use><g><use xlink:href="#f14rfvtEy" opacity="1" fill-opacity="0" stroke="#000000" stroke-width="1" stroke-opacity="1"></use></g></g><g><use xlink:href="#aTFOhEd5" opacity="1" fill="#ff0000" fill-opacity="1"></use><g><use xlink:href="#aTFOhEd5" opacity="1" fill-opacity="0" stroke="#000000" stroke-width="1" stroke-opacity="1"></use></g></g><g><use xlink:href="#lAesOk1EQ" opacity="1" fill="#000000" fill-opacity="1"></use><g><use xlink:href="#lAesOk1EQ" opacity="1" fill-opacity="0" stroke="#000000" stroke-width="1.5" stroke-opacity="1"></use></g></g></g></g></svg>