<svg width="480" height="480" xmlns="http://www.w3.org/2000/svg" xmlns:svg="http://www.w3.org/2000/svg" xmlns:xlink="http://www.w3.org/1999/xlink">
 <!-- Created with SVG-edit - http://svg-edit.googlecode.com/ -->
 <defs>
  <symbol id="svg_52" height="400" width="580" xmlns="http://www.w3.org/2000/svg">
   <!-- Created with Method Draw - http://github.com/duopixel/Method-Draw/ -->
   <g>
    <title>Layer 1</title>
    <!-- Created with Method Draw - http://github.com/duopixel/Method-Draw/ -->
    <g id="svg_3" stroke="null">
     <g id="svg_4" transform="matrix(1.1566981664560534,0,0,1.1227266370675775,-2949.9025520401324,-1963.616440927182) " stroke="null">
      <title>Layer 1</title>
      <ellipse ry="154.677193" rx="154.677193" id="svg_51" cy="1931.892192" cx="2809.766445" stroke-opacity="null" stroke-width="1.5" fill="#ffbf00" stroke="null"/>
      <g transform="rotate(-34 2782.593017578124,1932.7163085937495) " id="svg_28" stroke="null">
       <g transform="matrix(9.857770335185066,0,0,9.857770335185066,285.8584050491654,-68.58106225944039) " id="svg_44" stroke="null">
        <g id="svg_45" stroke="null">
         <path id="svg_50" fill="#030104" d="m259.46329,195.43958c-0.676,-2.293 -1.451,-4.394 -1.451,-4.394s0.254,1.002 -1.133,3.295c-1.93,3.185 -1.813,2.894 -12.715,18.346l2.807,3.904l12.072,-17.89c0,0 1.101,-0.97 0.42,-3.261z" stroke="null"/>
         <polygon id="svg_49" fill="#030104" points="257.4412885904312,203.40757751464844 254.74628698825836,207.36257934570312 259.6412875652313,216.90957641601562 262.38728761672974,212.87557983398438 " stroke="null"/>
         <path id="svg_48" fill="#030104" d="m250.40829,191.15058l0.117,-0.363c-0.062,0.106 -0.101,0.23 -0.117,0.363z" stroke="null"/>
         <path id="svg_47" fill="#030104" d="m250.69129,201.87758l2.393,-4.069l-1.977,-4.405c0,0 -0.805,-1.365 -0.699,-2.253l-1.467,4.594c0,0 -0.482,1.211 0.229,2.536c0.707,1.325 1.521,3.597 1.521,3.597z" stroke="null"/>
         <path id="svg_46" fill="#030104" d="m257.01029,193.17858c0,0 1.244,-1.76 0.629,-2.987c0,0 -2.738,-2.18 -6.498,-0.307c0,0 -1.195,0.708 0.322,3.294c0,0 3.672,-0.97 5.547,0z" stroke="null"/>
        </g>
       </g>
       <g transform="matrix(9.857770335185066,0,0,9.857770335185066,285.8584050491654,-68.58106225944039) " id="svg_43" stroke="null"/>
       <g transform="matrix(9.857770335185066,0,0,9.857770335185066,285.8584050491654,-68.58106225944039) " id="svg_42" stroke="null"/>
       <g transform="matrix(9.857770335185066,0,0,9.857770335185066,285.8584050491654,-68.58106225944039) " id="svg_41" stroke="null"/>
       <g transform="matrix(9.857770335185066,0,0,9.857770335185066,285.8584050491654,-68.58106225944039) " id="svg_40" stroke="null"/>
       <g transform="matrix(9.857770335185066,0,0,9.857770335185066,285.8584050491654,-68.58106225944039) " id="svg_39" stroke="null"/>
       <g transform="matrix(9.857770335185066,0,0,9.857770335185066,285.8584050491654,-68.58106225944039) " id="svg_38" stroke="null"/>
       <g transform="matrix(9.857770335185066,0,0,9.857770335185066,285.8584050491654,-68.58106225944039) " id="svg_37" stroke="null"/>
       <g transform="matrix(9.857770335185066,0,0,9.857770335185066,285.8584050491654,-68.58106225944039) " id="svg_36" stroke="null"/>
       <g transform="matrix(9.857770335185066,0,0,9.857770335185066,285.8584050491654,-68.58106225944039) " id="svg_35" stroke="null"/>
       <g transform="matrix(9.857770335185066,0,0,9.857770335185066,285.8584050491654,-68.58106225944039) " id="svg_34" stroke="null"/>
       <g transform="matrix(9.857770335185066,0,0,9.857770335185066,285.8584050491654,-68.58106225944039) " id="svg_33" stroke="null"/>
       <g transform="matrix(9.857770335185066,0,0,9.857770335185066,285.8584050491654,-68.58106225944039) " id="svg_32" stroke="null"/>
       <g transform="matrix(9.857770335185066,0,0,9.857770335185066,285.8584050491654,-68.58106225944039) " id="svg_31" stroke="null"/>
       <g transform="matrix(9.857770335185066,0,0,9.857770335185066,285.8584050491654,-68.58106225944039) " id="svg_30" stroke="null"/>
       <g transform="matrix(9.857770335185066,0,0,9.857770335185066,285.8584050491654,-68.58106225944039) " id="svg_29" stroke="null"/>
      </g>
      <g transform="rotate(27 2825.7629394531245,1928.0552978515625) " id="svg_5" stroke="null">
       <g transform="matrix(9.857770335185066,0,0,9.857770335185066,285.8584050491654,-68.58106225944039) " id="svg_21" stroke="null">
        <g id="svg_22" stroke="null">
         <path id="svg_27" fill="#ff0000" d="m263.84258,194.96676c-0.676,-2.293 -1.451,-4.394 -1.451,-4.394s0.254,1.002 -1.133,3.295c-1.93,3.185 -1.813,2.894 -12.715,18.346l2.807,3.904l12.072,-17.89c0,0 1.101,-0.97 0.42,-3.261z" stroke="null"/>
         <polygon id="svg_26" fill="#ff0000" points="261.82057762145996,202.9347686767578 259.12558603286743,206.88975524902344 264.0205783843994,216.436767578125 266.7665777206421,212.4027557373047 " stroke="null"/>
         <path id="svg_25" fill="#ff0000" d="m254.78758,190.67776l0.117,-0.363c-0.062,0.106 -0.101,0.23 -0.117,0.363z" stroke="null"/>
         <path id="svg_24" fill="#ff0000" d="m255.07058,201.40476l2.393,-4.069l-1.977,-4.405c0,0 -0.805,-1.365 -0.699,-2.253l-1.467,4.594c0,0 -0.482,1.211 0.229,2.536c0.707,1.325 1.521,3.597 1.521,3.597z" stroke="null"/>
         <path id="svg_23" fill="#ff0000" d="m261.38958,192.70576c0,0 1.244,-1.76 0.629,-2.987c0,0 -2.738,-2.18 -6.498,-0.307c0,0 -1.195,0.708 0.322,3.294c0,0 3.672,-0.97 5.547,0z" stroke="null"/>
        </g>
       </g>
       <g transform="matrix(9.857770335185066,0,0,9.857770335185066,285.8584050491654,-68.58106225944039) " id="svg_20" stroke="null"/>
       <g transform="matrix(9.857770335185066,0,0,9.857770335185066,285.8584050491654,-68.58106225944039) " id="svg_19" stroke="null"/>
       <g transform="matrix(9.857770335185066,0,0,9.857770335185066,285.8584050491654,-68.58106225944039) " id="svg_18" stroke="null"/>
       <g transform="matrix(9.857770335185066,0,0,9.857770335185066,285.8584050491654,-68.58106225944039) " id="svg_17" stroke="null"/>
       <g transform="matrix(9.857770335185066,0,0,9.857770335185066,285.8584050491654,-68.58106225944039) " id="svg_16" stroke="null"/>
       <g transform="matrix(9.857770335185066,0,0,9.857770335185066,285.8584050491654,-68.58106225944039) " id="svg_15" stroke="null"/>
       <g transform="matrix(9.857770335185066,0,0,9.857770335185066,285.8584050491654,-68.58106225944039) " id="svg_14" stroke="null"/>
       <g transform="matrix(9.857770335185066,0,0,9.857770335185066,285.8584050491654,-68.58106225944039) " id="svg_13" stroke="null"/>
       <g transform="matrix(9.857770335185066,0,0,9.857770335185066,285.8584050491654,-68.58106225944039) " id="svg_12" stroke="null"/>
       <g transform="matrix(9.857770335185066,0,0,9.857770335185066,285.8584050491654,-68.58106225944039) " id="svg_11" stroke="null"/>
       <g transform="matrix(9.857770335185066,0,0,9.857770335185066,285.8584050491654,-68.58106225944039) " id="svg_10" stroke="null"/>
       <g transform="matrix(9.857770335185066,0,0,9.857770335185066,285.8584050491654,-68.58106225944039) " id="svg_9" stroke="null"/>
       <g transform="matrix(9.857770335185066,0,0,9.857770335185066,285.8584050491654,-68.58106225944039) " id="svg_8" stroke="null"/>
       <g transform="matrix(9.857770335185066,0,0,9.857770335185066,285.8584050491654,-68.58106225944039) " id="svg_7" stroke="null"/>
       <g transform="matrix(9.857770335185066,0,0,9.857770335185066,285.8584050491654,-68.58106225944039) " id="svg_6" stroke="null"/>
      </g>
     </g>
    </g>
    <path fill="#000000" stroke="#000" stroke-width="1.5" stroke-opacity="null" id="svg_2"/>
    <path fill="#000000" stroke-width="1.5" stroke-opacity="null" d="m319.98556,241.21056c0,0 49.04762,26.58164 49.04762,26.58164c0,0 -5.61061,-51.88004 -5.61061,-52.06336c0,-0.18332 -42.8122,19.44997 -43.43701,25.48172z" id="svg_1" stroke="#000"/>
   </g>
  </symbol>
 </defs>
 <g>
  <title>Layer 1</title>
  <use x="-185.683907" y="-28.302558" transform="matrix(1.3082476650034391,0,0,1.3082476650034391,91.42378840481899,8.235380943352563) " xlink:href="#svg_52" id="svg_53"/>
  <g id="svg_54"/>
 </g>
</svg>